<svg xmlns="http://www.w3.org/2000/svg" viewBox="0 0 64 64" role="img" aria-label="Demo Examination Platform favicon">
  <rect width="64" height="64" rx="12" fill="#eff6ff"/>
  <g fill="none" stroke="#2563eb" stroke-width="3" stroke-linecap="round" stroke-linejoin="round">
    <path d="M24 48c-5 0-9-4-9-9 0-3 1-5 3-7-1-5 2-10 7-11 2-5 7-8 12-8 6 0 11 4 13 10 4 1 7 5 7 9 0 5-4 9-9 9"/>
    <path d="M32 16v32"/>
    <path d="M25 22c2 1 3 3 3 5s-1 4-3 5"/>
    <path d="M39 22c-2 1-3 3-3 5s1 4 3 5"/>
    <path d="M24 34c2 1 3 3 3 5s-1 4-3 5"/>
    <path d="M40 34c-2 1-3 3-3 5s1 4 3 5"/>
  </g>
</svg>
